<mxfile host="app.diagrams.net" modified="2024-03-08T10:52:26.221Z" agent="Mozilla/5.0 (Windows NT 10.0; Win64; x64) AppleWebKit/537.36 (KHTML, like Gecko) Chrome/121.0.0.0 Safari/537.36" version="24.0.2" etag="r9vJPyy92Sq6gCoq05x6" type="github">
  <diagram name="Lapa-1" id="UTE822P2r8b5iYSv9u57">
    <mxGraphModel>
      <root>
        <mxCell id="0" />
        <mxCell id="1" parent="0" />
      </root>
    </mxGraphModel>
  </diagram>
</mxfile>
